<?xml version="1.0" standalone="no"?>
<!DOCTYPE svg PUBLIC "-//W3C//DTD SVG 20010904//EN"
 "http://www.w3.org/TR/2001/REC-SVG-20010904/DTD/svg10.dtd">
<svg version="1.0" xmlns="http://www.w3.org/2000/svg"
 width="108" height="108" viewBox="0 0 108.000000 108.000000"
 preserveAspectRatio="xMidYMid meet">
<metadata>
Created by potrace 1.16, written by Peter Selinger 2001-2019
</metadata>
<g transform="translate(0.000000,108.000000) scale(0.100000,-0.100000)"
fill="#000000" stroke="none">
<path d="M260 540 l0 -280 280 0 280 0 0 160 0 160 -160 0 -160 0 0 -40 0 -40
120 0 120 0 0 -80 0 -80 -200 0 -200 0 0 200 0 200 200 0 200 0 0 -60 0 -60
40 0 40 0 0 100 0 100 -280 0 -280 0 0 -280z"/>
<path d="M380 540 l0 -160 160 0 160 0 0 40 0 40 -120 0 -120 0 0 80 0 80 120
0 120 0 0 40 0 40 -160 0 -160 0 0 -160z"/>
</g>
</svg>
